# xmcd
#
# Track frame offsets:
#	150
#	20244
#	34726
#	57038
#	83070
#	110043
#	124306
#	144391
#	157244
#	188856
#	209375
#	222063
#	242856
#
# Disc length: 3499 seconds
#
# Revision: 0
# Processed by: cddbd v1.5.2PL0 Copyright (c) Steve Scherf et al.
# Submitted via: dBpowerAMP V4.0
#
DISCID=c10da90d
DTITLE=Bill Perry - Love Scars
DYEAR=1996
DGENRE=Blues
TTITLE0=Love scars
TTITLE1=Lost in the Blues
TTITLE2=Fade to blue+
TTITLE3=Down
TTITLE4=Darkness of your love
TTITLE5=Boogie Blues
TTITLE6=Settle down, Fred
TTITLE7=Smokey Joe
TTITLE8=I'm leaving you
TTITLE9=In my lonely room
TTITLE10=80 West
TTITLE11=Fade to blue (reprise)
TTITLE12=Extra track
EXTD=
EXTT0=
EXTT1=
EXTT2=
EXTT3=
EXTT4=
EXTT5=
EXTT6=
EXTT7=
EXTT8=
EXTT9=
EXTT10=
EXTT11=
EXTT12=
PLAYORDER=
